<?xml version="1.0" encoding="UTF-8" standalone="no"?>
<!-- Created with Inkscape (http://www.inkscape.org/) -->

<svg
   version="1.1"
   id="svg1"
   width="150"
   height="149.99998"
   viewBox="0 0 150 149.99998"
   sodipodi:docname="cross-icon.png"
   xmlns:inkscape="http://www.inkscape.org/namespaces/inkscape"
   xmlns:sodipodi="http://sodipodi.sourceforge.net/DTD/sodipodi-0.dtd"
   xmlns="http://www.w3.org/2000/svg"
   xmlns:svg="http://www.w3.org/2000/svg">
  <defs
     id="defs1" />
  <sodipodi:namedview
     id="namedview1"
     pagecolor="#ffffff"
     bordercolor="#000000"
     borderopacity="0.25"
     inkscape:showpageshadow="2"
     inkscape:pageopacity="0.0"
     inkscape:pagecheckerboard="0"
     inkscape:deskcolor="#d1d1d1" />
  <g
     inkscape:groupmode="layer"
     inkscape:label="Image"
     id="g1"
     transform="translate(-225.8219,-165.92674)">
    <path
       style="fill:#999999;stroke-width:0.430927"
       d="m 248.1427,315.83722 c -5.41053,-0.41239 -11.01382,-3.07057 -15.11802,-7.17192 -2.83929,-2.83731 -4.77137,-5.96002 -6.08474,-9.83436 -0.82948,-2.44694 -0.96281,-3.27645 -1.07632,-6.69664 -0.10858,-3.27164 -0.0269,-4.34805 0.50492,-6.64759 0.66188,-2.8623 2.0066,-5.99249 3.58718,-8.35006 0.51024,-0.76109 8.75224,-9.22225 18.31557,-18.80258 l 17.38786,-17.41881 -17.38786,-17.4188 c -9.56333,-9.58034 -17.80533,-18.0415 -18.31557,-18.80259 -1.58058,-2.35757 -2.9253,-5.48775 -3.58718,-8.35006 -0.53174,-2.29954 -0.6135,-3.37594 -0.50492,-6.64758 0.11351,-3.4202 0.24684,-4.24971 1.07632,-6.69665 2.89042,-8.52653 9.61981,-14.57997 18.49448,-16.63671 1.07436,-0.24899 3.30232,-0.43675 5.17513,-0.43613 5.15699,0.002 9.79694,1.39637 14.02662,4.21615 0.72813,0.48541 9.16779,8.70166 18.75481,18.25832 l 17.43093,17.37576 17.43092,-17.37576 c 9.58701,-9.55666 18.02668,-17.77291 18.75481,-18.25832 4.22968,-2.81978 8.86963,-4.21447 14.02662,-4.21615 1.87281,-8.1e-4 4.10077,0.18714 5.17513,0.43613 8.87467,2.05674 15.60406,8.11018 18.49448,16.63671 0.82948,2.44694 0.96281,3.27645 1.07631,6.69665 0.10859,3.27164 0.0269,4.34804 -0.50491,6.64758 -0.66189,2.86231 -2.00661,5.99249 -3.58717,8.35006 -0.51025,0.76109 -8.75226,9.22225 -18.31558,18.80259 l -17.38786,17.4188 17.38786,17.41881 c 9.56332,9.58033 17.80533,18.04149 18.31558,18.80258 1.58056,2.35757 2.92528,5.48776 3.58717,8.35006 0.53174,2.29954 0.6135,3.37595 0.50491,6.64759 -0.1135,3.42019 -0.24683,4.2497 -1.07631,6.69664 -2.89042,8.52654 -9.61981,14.57997 -18.49448,16.63671 -1.07436,0.24899 -3.30232,0.43675 -5.17513,0.43614 -5.15699,-0.002 -9.79694,-1.39638 -14.02662,-4.21615 -0.72813,-0.48542 -9.1678,-8.70167 -18.75481,-18.25833 l -17.43092,-17.37576 -17.43093,17.37576 c -9.58702,9.55666 -18.02668,17.77291 -18.75481,18.25833 -4.86441,3.24292 -10.33416,4.61904 -16.49347,4.14958 z"
       id="path1" />
  </g>
</svg>
