<?xml version="1.0" encoding="UTF-8" standalone="no"?>
<!-- Generator: Adobe Illustrator 16.0.0, SVG Export Plug-In . SVG Version: 6.00 Build 0)  -->

<svg
   version="1.1"
   id="Capa_1"
   x="0px"
   y="0px"
   width="123.04974"
   height="123.05075"
   viewBox="0 0 123.04974 123.05075"
   xml:space="preserve"
   sodipodi:docname="download.svg"
   xmlns:inkscape="http://www.inkscape.org/namespaces/inkscape"
   xmlns:sodipodi="http://sodipodi.sourceforge.net/DTD/sodipodi-0.dtd"
   xmlns="http://www.w3.org/2000/svg"
   xmlns:svg="http://www.w3.org/2000/svg"><defs
   id="defs16" /><sodipodi:namedview
   id="namedview16"
   pagecolor="#ffffff"
   bordercolor="#000000"
   borderopacity="0.25"
   inkscape:showpageshadow="2"
   inkscape:pageopacity="0.0"
   inkscape:pagecheckerboard="0"
   inkscape:deskcolor="#d1d1d1" />
<g
   id="g1"
   transform="translate(-2.4997538e-4,-2.5005124e-4)"
   style="fill:#999999">
	<path
   d="m 121.325,10.925 -8.5,-8.399 c -2.3,-2.3 -6.1,-2.3 -8.5,0 L 61.925,44.925 18.726,1.726 c -2.301,-2.301 -6.101,-2.301 -8.5,0 l -8.5,8.5 c -2.301,2.3 -2.301,6.1 0,8.5 l 43.1,43.1 -42.3,42.5 c -2.3,2.3 -2.3,6.1 0,8.5 l 8.5,8.5 c 2.3,2.3 6.1,2.3 8.5,0 l 42.399,-42.4 42.4,42.4 c 2.3,2.3 6.1,2.3 8.5,0 l 8.5,-8.5 c 2.3,-2.3 2.3,-6.1 0,-8.5 l -42.5,-42.4 42.4,-42.399 c 2.4,-2.402 2.4,-6.202 0.1,-8.602 z"
   id="path1"
   style="fill:#999999" />
</g>















</svg>
